<svg xmlns="http://www.w3.org/2000/svg" version="1.1" xmlns:xlink="http://www.w3.org/1999/xlink" viewBox="0 0 700 700" style="overflow: hidden; display: block;" width="700" height="700"><defs></defs><g id="two-0" transform="matrix(1 0 0 1 0 0)" opacity="1"><path transform="matrix(1 0 0 1 350 350)" id="two-258" d="M 260.387088 41.241263 C 258.477999 64.585586 197.285719 39.643665 192.704801 62.613585 C 183.66651 107.933944 320.739634 111.559265 299.85194 152.782194 C 279.192681 193.554295 192.405 83.294507 165.262816 120.070464 C 139.729757 154.666158 255.655845 196.089761 231.985901 231.985901 C 219.110267 251.512165 182.647146 233.077335 161.732795 222.606095 C 119.289745 201.356029 104.203717 100.045322 61.073226 119.862956 C 33.142032 132.696804 86.536778 187.350298 69.098639 212.663744 C 62.501787 222.239826 46.317233 218.879314 35.214648 222.336538 C 23.503713 225.983196 10.495941 227.881835 0 234.228434 C -17.059418 244.543782 -27.501003 264.320836 -43.703869 275.935363 C -60.459401 287.946053 -82.544635 317.219486 -99.063052 304.884721 C -147.483194 268.728042 -45.100947 182.660396 -63.788649 125.192271 C -66.047932 118.244559 -73.077182 112.420457 -80.015137 110.131386 C -90.699844 106.606132 -103.020835 111.034277 -113.900793 113.900792 C -150.120266 123.443445 -181.477257 165.708323 -218.245128 158.564366 C -232.605923 155.774079 -237.071937 134.841598 -249.502364 127.127803 C -270.161755 114.307464 -318.09366 128.053333 -319.381885 103.773464 C -322.807236 39.214032 -137.532789 86.908871 -141.188615 22.362079 C -142.533879 -1.389732 -188.719095 11.170848 -209.723152 0 C -229.476522 -10.50568 -268.765074 -20.017472 -263.191632 -41.68546 C -255.666871 -70.939631 -182.693513 -27.605708 -172.80681 -56.148336 C -163.958274 -81.693804 -242.374365 -93.236543 -228.36195 -116.356225 C -209.105858 -148.127675 -155.63363 -77.569954 -119.688165 -86.958542 C -112.29837 -88.888681 -104.97438 -95.737695 -103.155709 -103.155709 C -97.341316 -126.871518 -129.940194 -149.405441 -126.065459 -173.514219 C -124.098784 -185.750965 -113.694605 -196.276731 -103.832936 -203.783611 C -94.426593 -210.943887 -78.835863 -208.299054 -70.357026 -216.536661 C -54.226671 -232.208095 -57.048055 -260.990199 -44.267737 -279.495486 C -32.870608 -295.99798 -18.358604 -313.061797 -0.000001 -321.135738 C 15.589158 -327.991703 34.458143 -325.816023 51.465899 -324.942903 C 68.589482 -324.063837 90.628742 -328.081957 102.61737 -315.823791 C 123.091307 -294.889544 90.427713 -241.960049 116.245037 -228.143732 C 140.177055 -215.336349 170.258034 -280.372788 190.877595 -262.720472 C 217.138289 -240.238808 175.540764 -193.83307 162.018159 -162.01816 C 150.614027 -135.187424 98.973948 -107.851634 117.760979 -85.55836 C 159.306297 -36.259397 271.831564 -210.861499 300.98293 -153.358464 C 330.564954 -95.005928 115.739755 -106.394291 135.586805 -44.054824 C 153.551572 12.372407 303.635113 -108.010442 314.940502 -49.881676 C 324.062702 -2.978183 181.81106 -47.700105 179.00889 -0.000001 C 177.243309 30.054699 262.840994 11.23492 260.387088 41.241263 Z " fill="hsl(230, 55%, 40%)" stroke="undefined" stroke-width="1" stroke-opacity="1" fill-opacity="1" visibility="visible" stroke-linecap="butt" stroke-linejoin="miter" stroke-miterlimit="4"></path></g></svg>