<svg xmlns="http://www.w3.org/2000/svg" version="1.1" xmlns:xlink="http://www.w3.org/1999/xlink" viewBox="0 0 700 700" style="overflow: hidden; display: block;" width="700" height="700"><defs><linearGradient id="two-27" x1="350" y1="-350" x2="350" y2="350" spreadMethod="pad" gradientUnits="userSpaceOnUse"><stop offset="0%" stop-color="hsl(205, 69%, 60%)" stop-opacity="1"></stop><stop offset="100%" stop-color="hsl(205, 69%, 80%)" stop-opacity="1"></stop></linearGradient></defs><g id="two-0" transform="matrix(1 0 0 1 0 0)" opacity="1"><path transform="matrix(1 0 0 1 350 350)" id="two-159" d="M 264.838254 38.077992 C 278.07152 53.171816 310.365389 71.019431 299.625058 87.977855 C 269.24572 135.945249 162.212802 12.620764 129.967297 59.354075 C 121.546338 71.558544 161.841574 86.462467 152.681604 98.122509 C 139.855227 114.449648 105.45498 63.920638 92.408855 80.072729 C 75.186707 101.395052 150.762947 132.460107 132.441361 152.845478 C 121.24939 165.298138 98.27041 122.267021 85.638918 133.256757 C 52.618437 161.98546 159.275638 243.404034 119.428745 261.512474 C 79.121647 279.830054 86.551407 137.622852 44.173758 150.442006 C -2.742558 164.634097 84.142879 272.35029 42.985427 298.970213 C 29.972067 307.387027 13.837767 287.032101 0 280.053098 C -12.629658 273.683398 -23.279785 256.28479 -37.205177 258.767685 C -67.344859 264.141584 -69.047756 342.655007 -96.84651 329.828922 C -153.426355 303.72351 -8.873864 169.430072 -65.584871 143.610834 C -123.420567 117.27955 -132.604416 323.697232 -187.885855 292.356097 C -227.084858 270.132702 -159.687988 205.187851 -141.916227 163.780055 C -131.341137 139.140339 -87.031978 110.87003 -105.302342 91.244998 C -130.882614 63.76806 -181.924627 159.752099 -210.259567 135.125618 C -221.695807 125.186147 -206.641615 103.566817 -198.625323 90.709145 C -185.507166 69.668373 -136.566873 65.868285 -141.741907 41.619178 C -145.183351 25.493306 -174.164926 33.0582 -189.601057 27.260516 C -209.931326 19.624635 -251.573978 21.617545 -249.498354 0 C -246.467398 -31.567279 -175.338935 2.738948 -156.056117 -22.437483 C -151.323152 -28.617034 -152.857942 -39.254492 -156.714769 -46.015608 C -185.265266 -96.065358 -282.733481 -85.686467 -304.47334 -139.048316 C -310.755794 -154.468993 -307.164879 -179.838672 -292.718016 -188.118446 C -257.883258 -208.082913 -213.083285 -168.860222 -176.300313 -152.765091 C -145.023654 -139.079357 -112.045095 -77.206137 -87.04528 -100.455608 C -46.72182 -137.955851 -202.940151 -214.7502 -160.764637 -250.154658 C -138.881513 -268.524563 -116.865383 -187.121611 -90.892718 -199.027289 C -64.728213 -211.020904 -112.342375 -281.137359 -83.96881 -285.971505 C -33.005938 -294.654303 -71.815028 -136.281111 -20.522355 -142.736112 C 19.996985 -147.835327 -18.356087 -228.295852 -0.000001 -264.776985 C 9.579785 -283.815978 24.095473 -306.127972 44.763099 -311.334196 C 59.092245 -314.943742 72.866179 -300.352742 87.386199 -297.610064 C 102.718471 -294.713962 119.624075 -299.138752 134.578737 -294.686331 C 149.182244 -290.338459 170.359228 -286.469285 174.719998 -271.869625 C 192.950636 -210.834276 44.177936 -147.489431 86.711419 -100.070313 C 98.8507 -86.536646 121.282463 -113.011886 138.175893 -119.730094 C 182.967746 -137.542993 245.863351 -215.279566 273.161766 -175.550408 C 296.240189 -141.96288 170.910915 -122.851088 188.188024 -85.942592 C 206.903054 -45.962318 310.273706 -137.098634 321.685949 -94.455518 C 334.764152 -45.587349 187.793533 -76.960552 184.276874 -26.495015 C 183.197993 -11.012622 210.961151 -9.62807 223.133611 -0.000001 C 237.750127 11.561249 252.552527 24.064928 264.838254 38.077992 Z " fill="hsl(180, 69%, 30%)" stroke="undefined" stroke-width="1" stroke-opacity="1" fill-opacity="1" visibility="visible" stroke-linecap="butt" stroke-linejoin="miter" stroke-miterlimit="4"></path></g></svg>