<svg xmlns="http://www.w3.org/2000/svg" version="1.1" xmlns:xlink="http://www.w3.org/1999/xlink" viewBox="0 0 700 700" style="overflow: hidden; display: block;" width="700" height="700"><defs></defs><g id="two-0" transform="matrix(1 0 0 1 0 0)" opacity="1"><path transform="matrix(1 0 0 1 350 350)" id="two-436" d="M 186.953325 23.149838 C 217.889324 43.203893 291.337839 35.613313 287.300157 72.25889 C 284.987644 93.247016 230.890295 66.896791 225.08322 87.197704 C 215.97546 119.037462 309.030133 128.454476 295.51214 158.686668 C 285.189385 181.772898 243.869169 159.412141 218.967366 155.003789 C 193.646369 150.521227 168.665164 122.796006 144.578687 131.800888 C 136.776606 134.717745 134.479527 145.572649 131.323031 153.280895 C 127.038811 163.743074 123.559334 175.376008 123.699005 186.68053 C 124.230087 229.664455 194.739035 294.67509 155.817212 312.923146 C 110.762356 334.046605 109.387501 217.362386 67.261838 190.875237 C 59.734048 186.142025 48.938337 182.600149 40.748749 186.064475 C 29.481228 190.830816 25.269097 205.765274 20.094213 216.851103 C 5.097681 248.977235 23.486652 307.986026 -9.859933 320.027191 C -23.365731 324.904018 -31.536037 296.009854 -45.890344 295.630506 C -63.659266 295.160918 -77.240577 333.301365 -92.024562 323.432783 C -137.573826 293.027811 -16.974378 180.603515 -67.430541 159.310946 C -118.73769 137.659259 -120.269642 319.605721 -169.545744 293.661841 C -207.375808 273.744302 -138.571495 212.295574 -128.874081 170.656862 C -125.542954 156.353683 -113.039234 137.605669 -122.739076 126.578865 C -130.371285 117.902552 -147.303081 131.874721 -157.753768 126.943984 C -165.237906 123.412895 -166.198568 111.326309 -173.496177 107.424284 C -188.154177 99.586665 -213.080129 115.719228 -223.661825 102.900767 C -230.588212 94.510277 -226.141927 79.307148 -220.348433 70.097882 C -206.308044 47.779456 -148.323719 54.530686 -152.163227 28.444236 C -155.08932 8.563728 -191.624813 18.086281 -211.069933 13.018347 C -254.515348 1.695275 -345.013368 23.699399 -342.762517 -21.140869 C -340.658692 -63.052176 -232.009847 -1.358264 -217.093509 -40.58181 C -211.214934 -56.039931 -237.879294 -66.988564 -249.013782 -79.216987 C -269.656847 -101.888182 -329.388575 -117.862682 -314.799188 -144.830608 C -295.120829 -181.205304 -232.060489 -129.901356 -192.170279 -118.986799 C -166.467962 -111.954262 -131.666462 -71.768714 -115.686157 -93.092304 C -92.879638 -123.524567 -208.036263 -159.956938 -181.797362 -187.484743 C -161.106953 -209.191503 -127.904998 -119.680397 -104.952733 -138.979879 C -64.196828 -173.249607 -212.463423 -261.49951 -166.385772 -288.18861 C -120.795611 -314.595344 -118.696022 -145.779449 -68.571876 -162.007459 C -46.351224 -169.201536 -67.898228 -209.448846 -66.221603 -232.74479 C -63.52682 -270.187575 -87.25152 -329.011008 -53.679286 -345.807706 C -38.668211 -353.317974 -20.304828 -333.122298 -9.858605 -319.984074 C 11.007403 -293.740879 -11.470638 -232.619345 20.671508 -223.081103 C 34.758751 -218.900687 44.396524 -241.260325 55.052687 -251.378254 C 74.411337 -269.759115 85.772452 -323.078871 109.624405 -311.091473 C 154.266334 -288.655548 36.576502 -185.526536 80.886381 -162.441752 C 116.476836 -143.899657 132.156824 -272.096797 165.509162 -249.778389 C 199.843204 -226.803055 84.769711 -162.428856 115.625074 -134.958163 C 141.039233 -112.331804 178.595812 -208.403447 204.809866 -186.708864 C 219.771731 -174.326522 172.608509 -145.869662 185.313003 -131.18036 C 205.70825 -107.598785 256.020975 -171.378795 278.036911 -149.302669 C 288.7394 -138.570921 270.983257 -119.290889 269.104181 -104.251516 C 267.585718 -92.098352 260.403631 -77.415771 267.1433 -67.189238 C 280.565302 -46.823173 337.993762 -66.014961 336.510241 -41.668999 C 332.854379 18.327139 173.026965 -58.494712 159.196901 -0.000001 C 156.452566 11.607256 176.944955 16.661979 186.953325 23.149838 Z " fill="hsl(265, 55%, 20%)" stroke="undefined" stroke-width="1" stroke-opacity="1" fill-opacity="1" visibility="visible" stroke-linecap="butt" stroke-linejoin="miter" stroke-miterlimit="4"></path></g></svg>